<svg xmlns="http://www.w3.org/2000/svg" width="85.605" height="45.832" viewBox="0 0 85.605 45.832">
  <g id="LOGO" transform="translate(0.628 2.586)">
    <g id="图层_10" data-name="图层 10" transform="translate(-0.628 -2.586)">
      <g id="组_5" data-name="组 5">
        <g id="组_4" data-name="组 4">
          <path id="路径_2" data-name="路径 2" d="M539.994,306.793v14.475s-.479,2.961,1.5,3.252,3.969.6,4.315.039-1.227-.1-.994-4.758.058-7.981.058-7.981,1.715-3.907,1.586-4.284S544.434,305.961,539.994,306.793Z" transform="translate(-497.523 -280.01)" fill="#fff"/>
          <path id="路径_3" data-name="路径 3" d="M33.818,164.53c-.766-.442-4.429-3.091-5.249,1.014S28.31,183.7,28.31,183.7s-.207,8.721-.914,10.661-1.061,5.736-3.3,7.854-3.535,3.971-7.659,3.354a12.186,12.186,0,0,1-7.423-3.883c-.648-.882-1.649-1.235-1.59-4.059s.648-6.442-1.708-8.207-5.89-.717-5.272,4.672,2.15,6.271,3.034,7.506a31.447,31.447,0,0,0,5.3,4.854c.235-.088,4.437,2.68,8.552,2.664s6.766-.9,8.415-2.135a15.012,15.012,0,0,0,5.951-8.737,76.192,76.192,0,0,0,2.474-13.59c0-1.676.589-10.943.472-13.5-.028-.622-.047-1.307-.069-1.994-.069-2.137-.176-4.291-.756-4.626Z" transform="translate(-0.372 -163.282)" fill="#fff"/>
        </g>
        <path id="路径_4" data-name="路径 4" d="M755.351,313.933c.013.025-1.061-2.705-4.208-.491a24.662,24.662,0,0,1-7.573,3.2s-5.418.641-8.564-.35a4.37,4.37,0,0,1-2.958-4.33c.246-.777,3.133-.039,3.835.088a23.416,23.416,0,0,0,15.26-2.4c7.049-4.02.233-6.932-.408-7.341a45.851,45.851,0,0,0-9.9-2.855,11.277,11.277,0,0,0-8.8,1.98,14.037,14.037,0,0,0-5.114,9.92c-.278,4.793,4.764,6.741,8.8,7.153s5.984.579,13.325-1.052,6.292-3.553,6.3-3.528Zm-17.14-11.91c2.855-.641,7.4-.757,9.613,1.98s-.815,4.835-2.8,5.651-10.428,2.156-11.71-1.223S738.21,302.023,738.21,302.023Z" transform="translate(-669.791 -273.357)" fill="#fff"/>
      </g>
    </g>
    <g id="图层_5" data-name="图层 5" transform="translate(37.744 -1.208)">
      <g id="组_6" data-name="组 6">
        <path id="路径_5" data-name="路径 5" d="M488.861,17.032l1.826.061-.764-1.336a7.312,7.312,0,0,0,4.713-1.592A7.418,7.418,0,0,0,497.4,9.741a8.159,8.159,0,0,0-.56-5.116A7.847,7.847,0,0,0,491.309.218,8.831,8.831,0,0,0,483.9,2.741C481.834,4.857,482,8.8,482,8.8s.574,4.68,3.877,6.1,3.463.988,3.463.988l-.475,1.149Z" transform="translate(-481.993 -0.13)" fill="none" stroke="#fff" stroke-miterlimit="10" stroke-width="0.25"/>
        <path id="路径_6" data-name="路径 6" d="M492.025,35.267l12.166-.307s.817,1.183.915,1.318-13.886.423-13.886.423a9.335,9.335,0,0,1,.805-1.435Z" transform="translate(-490.495 -32.222)" fill="#09c"/>
        <path id="路径_7" data-name="路径 7" d="M482.546,74.507l15.1-.237s.4,1.712.232,1.649-15.562.259-15.562.259l.226-1.671Z" transform="translate(-482.294 -68.441)" fill="#09c"/>
        <path id="路径_8" data-name="路径 8" d="M483.134,113.525l15.405-.285a11.1,11.1,0,0,1-.322,1.512c-.106.156-14.653.4-14.653.4s-.627-1.6-.431-1.627Z" transform="translate(-483.008 -104.348)" fill="#09c"/>
        <path id="路径_9" data-name="路径 9" d="M497.289,152.782l13.254-.282s-1.165,1.473-1.257,1.56-10.683.371-10.683.371-1.585-1.677-1.315-1.649Z" transform="translate(-496.057 -140.521)" fill="#09c"/>
        <path id="路径_10" data-name="路径 10" d="M548.4,215.46a7,7,0,0,0-1.135,5.175c.393,3.381-1.079,8.479-1.522,8.445" transform="translate(-540.728 -198.531)" fill="none" stroke="#fff" stroke-miterlimit="10" stroke-width="0.26"/>
      </g>
    </g>
  </g>
</svg>
