<?xml version="1.0" encoding="UTF-8"?>
<svg id="_图层_2" data-name="图层 2" xmlns="http://www.w3.org/2000/svg" viewBox="0 0 126.93 54.07">
  <defs>
    <style>
      .cls-1 {
        font-family: MLingWaiMedium-TC-B5pc-H, 'LingWai TC';
        font-size: 23.52px;
      }

      .cls-2 {
        fill: #fff;
        stroke-width: 0px;
      }
    </style>
  </defs>
  <g id="_图层_1-2" data-name="图层 1">
    <circle class="cls-2" cx="18.32" cy="18.32" r="18.32"/>
    <text class="cls-1" transform="translate(5.23 25.05)"><tspan x="0" y="0">婕</tspan></text>
    <g>
      <path class="cls-2" d="m40.6,32.69c1.28-1.22,3.35-3.75,3.32-6.37h2.07c.06,3.87-3.72,6.95-4.39,7.56l-1.01-1.19Zm3.32-6.37V4.99h2.07v21.33h-2.07Z"/>
      <path class="cls-2" d="m51.88,4.23c.85,0,1.4.55,1.4,1.4,0,.91-.64,1.37-1.4,1.37-.85,0-1.28-.61-1.28-1.37,0-.85.52-1.4,1.28-1.4Zm1.04,6.86v15.24h-1.98v-15.08l1.98-.15Z"/>
      <path class="cls-2" d="m58.79,18.31c-.03.34-.03.67-.03,1.01,0,4.66,2.89,5.36,5.18,5.36,1.89,0,4.08-.49,4.57-.73l.4,1.43c-.98.61-3.47,1.07-5.36,1.07-2.77,0-6.77-1.01-6.77-7.13,0-5.73,3.5-8.23,7.16-8.35,3.66-.12,5.82,2.32,5.82,6.03,0,.43-.03.85-.09,1.31h-10.88Zm.21-1.19h8.93c-.03-1.98-.73-3.69-2.59-4.11-.64-.18-1.31-.21-1.98-.09-1.95.3-3.72,1.71-4.36,4.21Z"/>
    </g>
    <g>
      <path class="cls-2" d="m79.41,17.04l5.74-11.33h1.94l-6.79,12.89v6.51h-1.75v-6.54l-7.15-12.86h2.02l5.99,11.33Z"/>
      <path class="cls-2" d="m95.9,25.1l-.17-.42-.19-.58v-.06c-1.19.55-2.91,1.16-4.85,1.16-2.05,0-3.74-.72-3.91-2.91-.19-2.16,1.36-3.1,2.77-3.49,1.14-.28,4.05-.67,5.99-.89v-2.13c0-2.99-2.44-3.02-3.21-3.02-2.16.03-4.63,1-4.77,1.05l-.47-1.19c.22-.08,2.85-1.36,5.26-1.47,1.19-.03,4.99.11,4.99,4.02v9.92h-1.44Zm-.36-2.11v-3.96c-1.58.06-4.3.19-5.38.55-1.36.39-1.8,1.61-1.72,2.47.11,1.44,1.47,1.88,2.74,1.88,1.47,0,3.16-.44,4.35-.94Z"/>
      <path class="cls-2" d="m108.75,15.59c0-2.85-2.88-2.69-3.16-2.69-1.39.06-2.77.64-3.69,1.14v11.06h-1.8v-13.72l1.8-.14v1.55c1.05-.69,2.74-1.55,4.35-1.63.97-.03,4.3.03,4.3,3.74v10.2h-1.8v-9.5Z"/>
      <path class="cls-2" d="m120.11,11.13c.58,0,1.11.06,1.61.14l5.21-.14-.06,1.05h-3.02c1,.75,1.52,1.91,1.52,3.41,0,3.05-2.11,4.77-5.79,4.77-.86,0-1.61-.08-2.24-.28-.36.33-.53.72-.53,1.16,0,1.3,1.52,1.63,3.88,2.02,2.66.42,6.12,1,6.12,4.43s-3.57,4.32-6.68,4.32c-5.04,0-6.65-2.19-6.51-4.27.08-1.66,1.25-3.08,2.96-4.16-.69-.47-1.16-1.14-1.16-2.11,0-.58.19-1.16,1-1.75-1.41-.72-2.05-2.05-2.05-3.77,0-3.38,2.49-4.85,5.74-4.85Zm-2.58,13c-1.25,1.03-2.11,2.22-2.11,3.52,0,1.44,1.05,2.77,4.66,2.77,2.33,0,4.93-.55,4.93-2.69,0-1.91-2.13-2.49-3.55-2.74-1.08-.17-2.66-.33-3.93-.86Zm2.05-5.24c2.47,0,3.91-1.25,3.91-3.35,0-1.97-1.27-2.94-3.52-2.94s-3.8.94-3.8,3.27c0,1.72.89,3.02,3.41,3.02Z"/>
    </g>
  </g>
</svg>